<svg id="Main_-_Orange" data-name="Main - Orange" xmlns="http://www.w3.org/2000/svg" viewBox="0 0 457.19 457.19"><defs><style>.cls-1{fill:#cc7619;}.cls-2{fill:#666;}</style></defs><rect class="cls-1" x="123.65" y="203.29" width="87.77" height="35.39"/><rect class="cls-1" x="123.65" y="245.77" width="35.4" height="87.77"/><path class="cls-1" d="M159.05,196.21h-35.4V68.08a65.13,65.13,0,1,1,130.25,0V86.83a193.1,193.1,0,0,0-35.39-9V68.08a29.73,29.73,0,1,0-59.46,0Z"/><path class="cls-1" d="M329,298.14a141.28,141.28,0,0,1-12.55,35.4H166.13v-35.4Z"/><path class="cls-1" d="M253.9,140.73V291.06H218.51V128.18A141.2,141.2,0,0,1,253.9,140.73Z"/><path class="cls-1" d="M454.24,268.41a65.21,65.21,0,0,1-65.13,65.13H370.36a193.21,193.21,0,0,0,9-35.4h9.71a29.73,29.73,0,0,0,0-59.46H261V203.29H389.11A65.21,65.21,0,0,1,454.24,268.41Z"/><path class="cls-2" d="M372.22,298.14a183.76,183.76,0,0,1-9.41,35.4q-1.33,3.57-2.81,7.07a187.09,187.09,0,0,1-99,99c-2.33,1-4.7,1.92-7.08,2.81a185.12,185.12,0,0,1-35.39,9.41c-2.34.37-4.71.7-7.09,1a183.84,183.84,0,0,1-45.29,0c-2.38-.28-4.75-.61-7.08-1a185.22,185.22,0,0,1-35.4-9.41c-2.38-.89-4.74-1.84-7.07-2.81a187.1,187.1,0,0,1-99-99c-1-2.33-1.92-4.69-2.81-7.07a185.22,185.22,0,0,1-9.41-35.4c-.37-2.33-.7-4.7-1-7.08a183.84,183.84,0,0,1,0-45.29c.28-2.38.61-4.75,1-7.09a185.12,185.12,0,0,1,9.41-35.39c.89-2.38,1.84-4.75,2.81-7.08a187.09,187.09,0,0,1,99-99v39.29a151.6,151.6,0,0,0-59.74,59.73c-1.28,2.32-2.51,4.68-3.65,7.08a148.93,148.93,0,0,0-11.88,35.39c-.48,2.34-.89,4.71-1.24,7.09a149.93,149.93,0,0,0,0,45.29c.35,2.38.76,4.75,1.24,7.08a148.86,148.86,0,0,0,11.88,35.4c1.14,2.39,2.37,4.75,3.65,7.07a151.62,151.62,0,0,0,59.74,59.74c2.32,1.28,4.68,2.51,7.07,3.65a149.8,149.8,0,0,0,35.4,11.9c2.33.46,4.7.87,7.08,1.22a149.93,149.93,0,0,0,45.29,0c2.38-.35,4.75-.76,7.09-1.22A149.87,149.87,0,0,0,253.9,404c2.4-1.14,4.76-2.37,7.08-3.65a151.6,151.6,0,0,0,59.73-59.74q1.94-3.48,3.66-7.07a149.78,149.78,0,0,0,11.89-35.4c.46-2.33.88-4.7,1.22-7.08a149.93,149.93,0,0,0,0-45.29h35.73a185.15,185.15,0,0,1,0,45.29C372.92,293.44,372.59,295.81,372.22,298.14Z"/><path class="cls-2" d="M253.9,94.38c2.38.89,4.75,1.83,7.08,2.81a187.07,187.07,0,0,1,99,99H320.71A151.57,151.57,0,0,0,261,136.48q-3.48-1.93-7.08-3.66A148.91,148.91,0,0,0,218.51,121c-2.34-.48-4.71-.9-7.09-1.24a149.93,149.93,0,0,0-45.29,0V84a185.15,185.15,0,0,1,45.29,0c2.38.29,4.75.62,7.09,1A183.66,183.66,0,0,1,253.9,94.38Z"/></svg>